<svg xmlns="http://www.w3.org/2000/svg" viewBox="0 0 440 140" role="img" aria-label="Pinoxx logo">
  <defs>
    <linearGradient id="sunGrad" x1="0%" y1="0%" x2="100%" y2="100%">
      <stop offset="0%" stop-color="#f9c420" />
      <stop offset="100%" stop-color="#f49d1a" />
    </linearGradient>
    <linearGradient id="waterGrad" x1="0%" y1="0%" x2="100%" y2="0%">
      <stop offset="0%" stop-color="#0e83c1" />
      <stop offset="100%" stop-color="#23b2e2" />
    </linearGradient>
  </defs>
  <rect width="440" height="140" rx="16" fill="transparent" />
  <circle cx="156" cy="36" r="26" fill="url(#sunGrad)" />
  <path d="M24 74 C48 46 76 26 120 46 C156 64 178 36 210 50 C236 62 266 44 294 56 C322 68 338 78 368 52" fill="none" stroke="#435d1f" stroke-width="10" stroke-linecap="round" />
  <path d="M88 78 C132 52 180 44 218 68 C254 90 292 68 330 72" fill="none" stroke="url(#waterGrad)" stroke-width="14" stroke-linecap="round" />
  <path d="M92 92 C134 72 168 86 218 96 C262 104 300 88 334 100" fill="none" stroke="url(#waterGrad)" stroke-width="12" stroke-linecap="round" opacity="0.9" />
  <path d="M286 34 C296 22 318 24 324 34 C330 44 348 52 360 46" fill="none" stroke="#163e45" stroke-width="4" stroke-linecap="round" />
  <path d="M340 50 L352 58 L348 68" fill="none" stroke="#163e45" stroke-width="4" stroke-linecap="round" />
  <text x="32" y="118" font-family="Inter, Arial, sans-serif" font-size="40" font-weight="900" letter-spacing="-1" fill="#0b3f47">PINOXX</text>
  <text x="32" y="144" font-family="Inter, Arial, sans-serif" font-size="18" font-weight="800" fill="#375c2b">GETAWAYS</text>
  <text x="180" y="144" font-family="Inter, Arial, sans-serif" font-size="14" font-weight="700" fill="#60715c" letter-spacing="0.16em">DANDELI</text>
</svg>
